<svg xmlns="http://www.w3.org/2000/svg" viewBox="0 0 600 600">
    <defs>
        <path id="star1"  d="m382.5   198.715 5.933 18.12 19.066.044-15.4 11.242 5.851  18.148-15.452-11.173-15.45 11.173 5.851-18.148-15.4-11.242 19.066-.043z"/>
        <path id="star2"  d="m294.332 227.361 5.933 18.12 19.066.044-15.4 11.242 5.851  18.148-15.452-11.173-15.45 11.173 5.851-18.148-15.4-11.242 19.066-.043z"/>
        <path id="star3"  d="m470.668 227.361 5.933 18.12 19.066.044-15.4 11.242 5.851  18.148-15.452-11.173-15.45 11.173 5.851-18.148-15.4-11.242 19.066-.043z"/>
        <path id="star4"  d="m239.842 301.224 5.933 18.12 19.066.044-15.4 11.242 5.851  18.148-15.452-11.173-15.45 11.173 5.851-18.148-15.4-11.242 19.066-.043z"/>
        <path id="star5"  d="m525.158 301.224 5.933 18.12 19.066.044-15.4 11.242 5.851  18.148-15.452-11.173-15.45 11.173 5.851-18.148-15.4-11.242 19.066-.043z"/>
        <path id="star6"  d="m239.842 401.224 5.933 18.12 19.066.044-15.4 11.242 5.851  18.148-15.452-11.173-15.45 11.173 5.851-18.148-15.4-11.242 19.066-.043z"/>
        <path id="star7"  d="m525.158 401.224 5.933 18.12 19.066.044-15.4 11.242 5.851  18.148-15.452-11.173-15.45 11.173 5.851-18.148-15.4-11.242 19.066-.043z"/>
        <path id="star8"  d="m294.332 470.066 5.933 18.12 19.066.044-15.4 11.242 5.851  18.148-15.452-11.173-15.45 11.173 5.851-18.148-15.4-11.242 19.066-.043z"/>
        <path id="star9"  d="m382.5   498.715l5.933 18.12 19.066.044-15.4 11.242 5.851  18.148-15.452-11.173-15.45 11.173 5.851-18.148-15.4-11.242 19.066-.043z"/>
        <path id="star10" d="m470.668 470.066 5.933 18.12 19.066.044-15.4 11.242 5.851  18.148-15.452-11.173-15.45 11.173 5.851-18.148-15.4-11.242 19.066-.043z"/>
    </defs>
	<mask id="mask" mask-type="luminance">
        <circle r="300" cx="300" cy="300" fill="white"/>
    </mask>
    <g mask="url(#mask)">

		<g transform="translate(-140)">
			<path fill="#003893" d="M0 0h1020v600H0z"/>
			<path fill="#fff" d="M0 300h1020v150H0z"/>
			<path fill="#cf2027" d="M0 350h1020v50H0z"/>

            <g id="star-counter">
			    <use href="#star1"  fill="#f7d116"/>
			    <use href="#star2"  fill="#f7d116"/>
                <use href="#star4"  fill="#f7d116"/>
			    <use href="#star6"  fill="#f7d116"/>
			    <use href="#star8"  fill="#f7d116"/>
			    <use href="#star9"  fill="#f7d116"/>
			    <use href="#star10" fill="#f7d116"/>
                <use href="#star7"  fill="#f7d116"/>
			    <use href="#star5"  fill="#f7d116"/>
			    <use href="#star3"  fill="#f7d116"/>
            </g>
        </g>
	</g>
</svg>