<svg xmlns="http://www.w3.org/2000/svg" xmlns:xlink="http://www.w3.org/1999/xlink" viewBox="0 0 4000 4000">
    <defs>
        <path id="a" d="M247 90l70.534 217.082-184.66-134.164h228.253L176.466 307.082z"/>
    </defs>
    <mask id="mask" mask-type="luminance">
        <circle r="2000" cx="2000" cy="2000" fill="white"/>
    </mask>
    <g mask="url(#mask)">
        <g transform="translate(518, 400)">
            <path fill="#b22234" d="M0 0h7410v3900H-1000z"/>
            <path d="M0 450h7410m0 600H0m0 600h7410m0 600H-1000m0 600h7410m0 600H-100" stroke="#fff" stroke-width="300"/>
            <path fill="#3c3b6e" d="M-1000 -1000h6964v3100H-1000z"/>
            <g fill="#fff">
                <use xlink:href="#a" x="0" y="   0"/>
                <use xlink:href="#a" x="0" y=" 420"/>
                <use xlink:href="#a" x="0" y=" 840"/>
                <use xlink:href="#a" x="0" y="1260"/>
                <use xlink:href="#a" x="0" y="1680"/>

                <use xlink:href="#a" x="247" y=" 210"/>
                <use xlink:href="#a" x="247" y=" 630"/>
                <use xlink:href="#a" x="247" y="1050"/>
                <use xlink:href="#a" x="247" y="1470"/>


                <use xlink:href="#a" x="494" y="   0"/>
                <use xlink:href="#a" x="494" y=" 420"/>
                <use xlink:href="#a" x="494" y=" 840"/>
                <use xlink:href="#a" x="494" y="1260"/>
                <use xlink:href="#a" x="494" y="1680"/>

                <use xlink:href="#a" x="741" y=" 210"/>
                <use xlink:href="#a" x="741" y=" 630"/>
                <use xlink:href="#a" x="741" y="1050"/>
                <use xlink:href="#a" x="741" y="1470"/>


                <use xlink:href="#a" x="988" y="   0"/>
                <use xlink:href="#a" x="988" y=" 420"/>
                <use xlink:href="#a" x="988" y=" 840"/>
                <use xlink:href="#a" x="988" y="1260"/>
                <use xlink:href="#a" x="988" y="1680"/>

                <use xlink:href="#a" x="1235" y=" 210"/>
                <use xlink:href="#a" x="1235" y=" 630"/>
                <use xlink:href="#a" x="1235" y="1050"/>
                <use xlink:href="#a" x="1235" y="1470"/>


                <use xlink:href="#a" x="1482" y="   0"/>
                <use xlink:href="#a" x="1482" y=" 420"/>
                <use xlink:href="#a" x="1482" y=" 840"/>
                <use xlink:href="#a" x="1482" y="1260"/>
                <use xlink:href="#a" x="1482" y="1680"/>

                <use xlink:href="#a" x="1729" y=" 210"/>
                <use xlink:href="#a" x="1729" y=" 630"/>
                <use xlink:href="#a" x="1729" y="1050"/>
                <use xlink:href="#a" x="1729" y="1470"/>


                <use xlink:href="#a" x="1976" y="   0"/>
                <use xlink:href="#a" x="1976" y=" 420"/>
                <use xlink:href="#a" x="1976" y=" 840"/>
                <use xlink:href="#a" x="1976" y="1260"/>
                <use xlink:href="#a" x="1976" y="1680"/>

                <use xlink:href="#a" x="2223" y=" 210"/>
                <use xlink:href="#a" x="2223" y=" 630"/>
                <use xlink:href="#a" x="2223" y="1050"/>
                <use xlink:href="#a" x="2223" y="1470"/>


                <use xlink:href="#a" x="2470" y="   0"/>
                <use xlink:href="#a" x="2470" y=" 420"/>
                <use xlink:href="#a" x="2470" y=" 840"/>
                <use xlink:href="#a" x="2470" y="1260"/>
                <use xlink:href="#a" x="2470" y="1680"/>
            </g>
        </g>
    </g>
</svg>
