<svg xmlns="http://www.w3.org/2000/svg" width="1020" height="600">
  <path fill="#003893" d="M0 0h1020v600H0z"/>
  <path fill="#fff" d="M0 300h1020v150H0z"/>
  <path fill="#cf2027" d="M0 350h1020v50H0z"/>

  <path fill="#f7d116" d="m382.5   198.715 5.933 18.12 19.066.044-15.4 11.242 5.851  18.148-15.452-11.173-15.45 11.173 5.851-18.148-15.4-11.242 19.066-.043z"/>
  <path fill="#f7d116" d="m294.332 227.361 5.933 18.12 19.066.044-15.4 11.242 5.851  18.148-15.452-11.173-15.45 11.173 5.851-18.148-15.4-11.242 19.066-.043z"/>
  <path fill="#f7d116" d="m470.668 227.361 5.933 18.12 19.066.044-15.4 11.242 5.851  18.148-15.452-11.173-15.45 11.173 5.851-18.148-15.4-11.242 19.066-.043z"/>
  <path fill="#f7d116" d="m239.842 301.224 5.933 18.12 19.066.044-15.4 11.242 5.851  18.148-15.452-11.173-15.45 11.173 5.851-18.148-15.4-11.242 19.066-.043z"/>
  <path fill="#f7d116" d="m525.158 301.224 5.933 18.12 19.066.044-15.4 11.242 5.851  18.148-15.452-11.173-15.45 11.173 5.851-18.148-15.4-11.242 19.066-.043z"/>
  <path fill="#f7d116" d="m239.842 401.224 5.933 18.12 19.066.044-15.4 11.242 5.851  18.148-15.452-11.173-15.45 11.173 5.851-18.148-15.4-11.242 19.066-.043z"/>
  <path fill="#f7d116" d="m525.158 401.224 5.933 18.12 19.066.044-15.4 11.242 5.851  18.148-15.452-11.173-15.45 11.173 5.851-18.148-15.4-11.242 19.066-.043z"/>
  <path fill="#f7d116" d="m294.332 470.066 5.933 18.12 19.066.044-15.4 11.242 5.851  18.148-15.452-11.173-15.45 11.173 5.851-18.148-15.4-11.242 19.066-.043z"/>
  <path fill="#f7d116" d="m382.5   498.715l5.933 18.12 19.066.044-15.4 11.242 5.851  18.148-15.452-11.173-15.45 11.173 5.851-18.148-15.4-11.242 19.066-.043z"/>
  <path fill="#f7d116" d="m470.668 470.066 5.933 18.12 19.066.044-15.4 11.242 5.851  18.148-15.452-11.173-15.45 11.173 5.851-18.148-15.4-11.242 19.066-.043z"/>
</svg>
