<svg xmlns="http://www.w3.org/2000/svg" xmlns:xlink="http://www.w3.org/1999/xlink" viewBox="0 0 7410 3900">
    <defs>
        <path id="a" d="M247 90l70.534 217.082-184.66-134.164h228.253L176.466 307.082z"/>
    </defs>
    <path fill="#b22234" d="M0 0h7410v3900H0z"/>
    <path d="M0 450h7410m0 600H0m0 600h7410m0 600H0m0 600h7410m0 600H0" stroke="#fff" stroke-width="300"/>
    <path fill="#3c3b6e" d="M0 0h2964v2100H0z"/>
    <g fill="#fff">
        <use xlink:href="#a" x="0" y="   0"/>
        <use xlink:href="#a" x="0" y=" 420"/>
        <use xlink:href="#a" x="0" y=" 840"/>
        <use xlink:href="#a" x="0" y="1260"/>
        <use xlink:href="#a" x="0" y="1680"/>

        <use xlink:href="#a" x="247" y=" 210"/>
        <use xlink:href="#a" x="247" y=" 630"/>
        <use xlink:href="#a" x="247" y="1050"/>
        <use xlink:href="#a" x="247" y="1470"/>


        <use xlink:href="#a" x="494" y="   0"/>
        <use xlink:href="#a" x="494" y=" 420"/>
        <use xlink:href="#a" x="494" y=" 840"/>
        <use xlink:href="#a" x="494" y="1260"/>
        <use xlink:href="#a" x="494" y="1680"/>

        <use xlink:href="#a" x="741" y=" 210"/>
        <use xlink:href="#a" x="741" y=" 630"/>
        <use xlink:href="#a" x="741" y="1050"/>
        <use xlink:href="#a" x="741" y="1470"/>


        <use xlink:href="#a" x="988" y="   0"/>
        <use xlink:href="#a" x="988" y=" 420"/>
        <use xlink:href="#a" x="988" y=" 840"/>
        <use xlink:href="#a" x="988" y="1260"/>
        <use xlink:href="#a" x="988" y="1680"/>

        <use xlink:href="#a" x="1235" y=" 210"/>
        <use xlink:href="#a" x="1235" y=" 630"/>
        <use xlink:href="#a" x="1235" y="1050"/>
        <use xlink:href="#a" x="1235" y="1470"/>


        <use xlink:href="#a" x="1482" y="   0"/>
        <use xlink:href="#a" x="1482" y=" 420"/>
        <use xlink:href="#a" x="1482" y=" 840"/>
        <use xlink:href="#a" x="1482" y="1260"/>
        <use xlink:href="#a" x="1482" y="1680"/>

        <use xlink:href="#a" x="1729" y=" 210"/>
        <use xlink:href="#a" x="1729" y=" 630"/>
        <use xlink:href="#a" x="1729" y="1050"/>
        <use xlink:href="#a" x="1729" y="1470"/>


        <use xlink:href="#a" x="1976" y="   0"/>
        <use xlink:href="#a" x="1976" y=" 420"/>
        <use xlink:href="#a" x="1976" y=" 840"/>
        <use xlink:href="#a" x="1976" y="1260"/>
        <use xlink:href="#a" x="1976" y="1680"/>

        <use xlink:href="#a" x="2223" y=" 210"/>
        <use xlink:href="#a" x="2223" y=" 630"/>
        <use xlink:href="#a" x="2223" y="1050"/>
        <use xlink:href="#a" x="2223" y="1470"/>


        <use xlink:href="#a" x="2470" y="   0"/>
        <use xlink:href="#a" x="2470" y=" 420"/>
        <use xlink:href="#a" x="2470" y=" 840"/>
        <use xlink:href="#a" x="2470" y="1260"/>
        <use xlink:href="#a" x="2470" y="1680"/>
    </g>
</svg>
